<?xml version="1.0" encoding="utf-8"?>
<!-- Generator: Adobe Illustrator 25.2.0, SVG Export Plug-In . SVG Version: 6.00 Build 0)  -->
<svg version="1.1" id="Layer_1" xmlns="http://www.w3.org/2000/svg" xmlns:xlink="http://www.w3.org/1999/xlink" x="0px" y="0px"
	 viewBox="0 0 512 512" style="enable-background:new 0 0 512 512;" xml:space="preserve">
<style type="text/css">
	.st0{fill:#0A3138;}
</style>
<g>
	<path class="st0" d="M254.3,388.5c-0.4-24.3-4.3-45.3-9.3-65.4c-4.5-0.6-9-1.5-13.2-2.8C236.7,342.5,242.1,364.6,254.3,388.5z"/>
	<path class="st0" d="M267,323.3c-5,20.1-8.9,41-9.2,65.2c11.9-23.5,17.4-45.3,22.3-67.2C275.8,322.2,271.5,322.9,267,323.3z"/>
	<path class="st0" d="M285.9,248.7c-3.4,17.6-7.9,33.8-12.3,49.8H334c-7.1,9.1-14.6,17.9-22.2,26.6c-18.4,19.4-36.6,37.8-51.7,65.2
		c41.3-25.4,56.9-58.5,101.1-85.8c45.6-28.2,123.9-42.6,123.9-42.6s-51.6,60.6-98.9,86c-46.8,25.2-81.6,31.9-127.7,46.2
		c6.9-1.8,31.1-6.4,51.9,10c28,22.1,40.9,34.4,40.9,34.4s-21.2-5.9-54.2-18.7c-19.7-7.7-32-17-37.6-21.8c-2-1.8-5-1.8-7.1,0
		c-5.6,4.8-17.9,14.1-37.6,21.8c-32.9,12.8-54.2,18.7-54.2,18.7s13-12.3,41-34.4c20.8-16.4,45-11.8,51.9-10
		c-36-12.9-81-21.1-127.7-46.2c-47.2-25.4-98.9-86-98.9-86s78.3,14.4,123.9,42.6c44.2,27.3,59.7,60.5,101.1,85.8
		c-28.5-51.6-67.8-71.2-98.8-125.5c-31.6-55.3-45.4-148.8-45.4-148.8s69.8,63.8,98,120.9c9.1,18.4,14.6,35.5,18.8,52l8.9-8.9
		c-6.3-23.6-11.8-48.5-12.7-78.6C218.4,125.9,256,20.1,256,20.1s37.6,105.8,35.3,181.4c-0.2,7.8-0.8,15.1-1.6,22.3l4.3-4.3
		L437.4,76.1C391.1,29.1,326.9,0,256,0C114.9,0,0,115.7,0,257.5C0,397.8,114.9,512,256,512c140.3,0,252.3-105.6,255.8-263.2l0.2,0
		H285.9z"/>
</g>
</svg>
