<?xml version="1.0" encoding="utf-8"?>
<!-- Generator: Adobe Illustrator 25.2.0, SVG Export Plug-In . SVG Version: 6.00 Build 0)  -->
<svg version="1.1" id="Layer_1" xmlns="http://www.w3.org/2000/svg" xmlns:xlink="http://www.w3.org/1999/xlink" x="0px" y="0px"
	 viewBox="0 0 649.1201172 215.4865875" style="enable-background:new 0 0 649.1201172 215.4865875;" xml:space="preserve">
<style type="text/css">
	.st0{fill:#FFFFFF;}
</style>
<g>
	<path class="st0" d="M217.4207916,91.1285629c-23.2659149,0-42.0080719,18.742363-42.0080719,42.0082779
		c0,23.2658081,18.742157,42.00737,42.0080719,42.00737s42.0084686-18.7415619,42.0084686-42.00737
		C259.4292603,109.8709259,240.6867065,91.1285629,217.4207916,91.1285629z M217.4207916,141.2149963
		c-4.5233459,0-8.0781555-3.5547028-8.0781555-8.0781555c0-4.5244446,3.5548096-8.079155,8.0781555-8.079155
		c4.5237579,0,8.0785522,3.5547104,8.0785522,8.079155C225.4993439,137.6602936,221.9445496,141.2149963,217.4207916,141.2149963z"
		/>
	<path class="st0" d="M307.900177,91.1285629c-23.2658997,0-42.0072632,18.742363-42.0072632,42.0082779
		c0,23.2658081,18.7413635,42.00737,42.0072632,42.00737s42.0072632-18.7415619,42.0072632-42.00737
		C349.9074402,109.8709259,331.1660767,91.1285629,307.900177,91.1285629z M307.900177,141.2149963
		c-4.5245361,0-8.0781555-3.5547028-8.0781555-8.0781555c0-4.5244446,3.5536194-8.079155,8.0781555-8.079155
		s8.0781555,3.5547104,8.0781555,8.079155C315.9783325,137.6602936,312.4247131,141.2149963,307.900177,141.2149963z"/>
	<path class="st0" d="M408.8828735,96.4606705c-4.5245361-3.3928146-9.8565674-5.3321075-15.8345337-5.3321075
		c-20.0340881,0-36.6752625,18.9033585-36.6752625,42.0082779c0,23.1039124,16.6411743,42.00737,36.6752625,42.00737
		c7.1092224,0,13.2490845-2.5851593,18.0953979-7.2704926v5.6549835h31.6682434V68.8322983h-33.9291077V96.4606705z
		 M408.8828735,138.9528198c-1.4546204,1.454422-3.3929138,2.2621765-5.6553955,2.2621765
		c-4.5241394,0-8.0781555-3.5547028-8.0781555-8.0781555c0-4.5244446,3.5540161-8.079155,8.0781555-8.079155
		c2.2624817,0,4.2007751,0.9696503,5.6553955,2.2621765V138.9528198z"/>
	<path class="st0" d="M490.1512756,109.7090378l-7.755188-16.9650574h-34.736969l27.305603,56.0643997
		c-2.1013794,8.0782471-5.332428,18.4185791-14.7029114,19.8730927v31.6678467
		c20.680481,0,29.8894653-10.3404236,38.6143799-30.2134247l33.9291077-77.3919144h-34.8988647L490.1512756,109.7090378z"/>
	<path class="st0" d="M536.0379028,103.7310638c13.4093628,0,24.3967896-7.4322815,24.3967896-19.7111053V68.8322983h-24.3967896
		V103.7310638z"/>
	<polygon class="st0" points="636.3710938,92.7439804 568.5128174,92.7439804 568.5128174,121.9877625 588.8707275,121.9877625 
		567.7049561,173.5287018 636.2103882,173.5287018 636.2103882,144.2849274 614.5597534,144.2849274 	"/>
	<path class="st0" d="M92.1197052,136.4040527c-0.1129608-7.5836334-1.3309097-14.1274185-2.8925247-20.4144516
		c-1.4184189-0.1868439-2.796669-0.4826813-4.1283798-0.8772583
		C86.6437149,122.0585632,88.3334045,128.9456177,92.1197052,136.4040527z"/>
	<path class="st0" d="M96.0857925,116.0559311c-1.5532608,6.2667465-2.7632523,12.7912369-2.8762207,20.3481216
		c3.7286301-7.344574,5.4242859-14.1349792,6.9508972-20.9734039
		C98.8582001,115.7213135,97.4938736,115.92099,96.0857925,116.0559311z"/>
	<path class="st0" d="M98.1473923,108.3408356h18.8531418c-2.2043991,2.8419113-4.5440369,5.5911407-6.9333954,8.3005981
		c-5.733345,6.0510635-11.4102097,11.8005219-16.1360245,20.3529053
		c12.9046021-7.9187469,17.7592926-18.2646484,31.5532913-26.7899857
		c14.2363129-8.7989044,38.6788025-13.302269,38.6788025-13.302269s-16.1213074,18.9162827-30.8595886,26.845871
		c-14.5982742,7.8544159-25.4607697,9.9525146-39.8716965,14.4312134c2.1518936-0.5585632,9.7213135-2.0063171,16.211998,3.1215363
		c8.730484,6.8969116,12.780098,10.7369995,12.780098,10.7369995s-6.6314926-1.8297119-16.9088745-5.8409424
		c-6.1541748-2.401886-10.0045166-5.3019714-11.7498932-6.8142548c-0.6332397-0.5487213-1.5675812-0.5487213-2.2008209,0
		c-1.7453842,1.5122833-5.5957184,4.4123688-11.7499008,6.8142548c-10.2777786,4.0112305-16.930748,5.8409424-16.930748,5.8409424
		s4.0710983-3.8400879,12.8015823-10.7369995c6.4906845-5.1278534,14.0605011-3.6800995,16.2119904-3.1215363
		c-11.2288284-4.0366821-25.2730179-6.5767975-39.8716888-14.4312134
		c-14.7378883-7.9295883-30.8591919-26.845871-30.8591919-26.845871s24.4424934,4.5033646,38.6788025,13.302269
		c13.7939987,8.5253372,18.6482849,18.8712387,31.5532913,26.7899857
		c-8.8935699-16.0938644-21.1593628-22.2283478-30.828968-39.1685486
		c-9.8537636-17.2624893-14.1857948-46.461319-14.1857948-46.461319S68.1684494,71.283905,76.9693375,89.1059418
		c2.841217,5.7535324,4.5480118,11.0823593,5.8677902,16.2310944l2.7728043-2.7717133
		c-1.9685287-7.3716278-3.6928253-15.1314697-3.9748383-24.5232315
		C80.927475,54.4466286,92.6646423,21.4127712,92.6646423,21.4127712s11.7375641,33.0338593,11.0295486,56.6293182
		c-0.0727921,2.4243546-0.2593384,4.7194443-0.5031662,6.9483032l1.3559723-1.3553696l44.733139-44.7335396
		c-14.4447327-14.6790218-34.4820099-23.7642097-56.6154938-23.7642097c-44.0350723,0-79.9156189,36.1125374-79.9156189,80.3797989
		c0,43.8011932,35.8805428,79.4494324,79.9156189,79.4494324c43.7868652,0,78.7517548-32.949234,79.8611145-82.1714172
		l0.0525055-0.0115356h-70.5864944C100.9301376,98.2624359,99.5399628,103.3352966,98.1473923,108.3408356z"/>
</g>
</svg>
