<?xml version="1.0" encoding="utf-8"?>
<!-- Generator: Adobe Illustrator 25.2.0, SVG Export Plug-In . SVG Version: 6.00 Build 0)  -->
<svg version="1.1" id="Layer_1" xmlns="http://www.w3.org/2000/svg" xmlns:xlink="http://www.w3.org/1999/xlink" x="0px" y="0px"
	 viewBox="0 0 649.1 215.5" style="enable-background:new 0 0 649.1 215.5;" xml:space="preserve">
<style type="text/css">
	.st0{fill:#0A3138;}
</style>
<g>
	<path class="st0" d="M217.4,91.1c-23.3,0-42,18.7-42,42c0,23.3,18.7,42,42,42s42-18.7,42-42C259.4,109.9,240.7,91.1,217.4,91.1z
		 M217.4,141.2c-4.5,0-8.1-3.6-8.1-8.1c0-4.5,3.6-8.1,8.1-8.1c4.5,0,8.1,3.6,8.1,8.1C225.5,137.7,221.9,141.2,217.4,141.2z"/>
	<path class="st0" d="M307.9,91.1c-23.3,0-42,18.7-42,42c0,23.3,18.7,42,42,42s42-18.7,42-42C349.9,109.9,331.2,91.1,307.9,91.1z
		 M307.9,141.2c-4.5,0-8.1-3.6-8.1-8.1c0-4.5,3.6-8.1,8.1-8.1s8.1,3.6,8.1,8.1C316,137.7,312.4,141.2,307.9,141.2z"/>
	<path class="st0" d="M408.9,96.5c-4.5-3.4-9.9-5.3-15.8-5.3c-20,0-36.7,18.9-36.7,42c0,23.1,16.6,42,36.7,42
		c7.1,0,13.2-2.6,18.1-7.3v5.7h31.7V68.8h-33.9V96.5z M408.9,139c-1.5,1.5-3.4,2.3-5.7,2.3c-4.5,0-8.1-3.6-8.1-8.1
		c0-4.5,3.6-8.1,8.1-8.1c2.3,0,4.2,1,5.7,2.3V139z"/>
	<path class="st0" d="M490.2,109.7l-7.8-17h-34.7l27.3,56.1c-2.1,8.1-5.3,18.4-14.7,19.9v31.7c20.7,0,29.9-10.3,38.6-30.2l33.9-77.4
		h-34.9L490.2,109.7z"/>
	<path class="st0" d="M536,103.7c13.4,0,24.4-7.4,24.4-19.7V68.8H536V103.7z"/>
	<polygon class="st0" points="636.4,92.7 568.5,92.7 568.5,122 588.9,122 567.7,173.5 636.2,173.5 636.2,144.3 614.6,144.3 	"/>
	<path class="st0" d="M92.1,136.4c-0.1-7.6-1.3-14.1-2.9-20.4c-1.4-0.2-2.8-0.5-4.1-0.9C86.6,122.1,88.3,128.9,92.1,136.4z"/>
	<path class="st0" d="M96.1,116.1c-1.6,6.3-2.8,12.8-2.9,20.3c3.7-7.3,5.4-14.1,7-21C98.9,115.7,97.5,115.9,96.1,116.1z"/>
	<path class="st0" d="M98.1,108.3H117c-2.2,2.8-4.5,5.6-6.9,8.3c-5.7,6.1-11.4,11.8-16.1,20.4c12.9-7.9,17.8-18.3,31.6-26.8
		c14.2-8.8,38.7-13.3,38.7-13.3s-16.1,18.9-30.9,26.8c-14.6,7.9-25.5,10-39.9,14.4c2.2-0.6,9.7-2,16.2,3.1
		c8.7,6.9,12.8,10.7,12.8,10.7s-6.6-1.8-16.9-5.8c-6.2-2.4-10-5.3-11.7-6.8c-0.6-0.5-1.6-0.5-2.2,0c-1.7,1.5-5.6,4.4-11.7,6.8
		c-10.3,4-16.9,5.8-16.9,5.8s4.1-3.8,12.8-10.7c6.5-5.1,14.1-3.7,16.2-3.1c-11.2-4-25.3-6.6-39.9-14.4
		c-14.7-7.9-30.9-26.8-30.9-26.8s24.4,4.5,38.7,13.3c13.8,8.5,18.6,18.9,31.6,26.8c-8.9-16.1-21.2-22.2-30.8-39.2
		c-9.9-17.3-14.2-46.5-14.2-46.5S68.2,71.3,77,89.1c2.8,5.8,4.5,11.1,5.9,16.2l2.8-2.8c-2-7.4-3.7-15.1-4-24.5
		c-0.7-23.6,11-56.6,11-56.6s11.7,33,11,56.6c-0.1,2.4-0.3,4.7-0.5,6.9l1.4-1.4l44.7-44.7c-14.4-14.7-34.5-23.8-56.6-23.8
		c-44,0-79.9,36.1-79.9,80.4c0,43.8,35.9,79.4,79.9,79.4c43.8,0,78.8-32.9,79.9-82.2l0.1,0H102C100.9,98.3,99.5,103.3,98.1,108.3z"
		/>
</g>
</svg>
