<?xml version="1.0" encoding="utf-8"?>
<!-- Generator: Adobe Illustrator 25.2.0, SVG Export Plug-In . SVG Version: 6.00 Build 0)  -->
<svg version="1.1" id="Layer_1" xmlns="http://www.w3.org/2000/svg" xmlns:xlink="http://www.w3.org/1999/xlink" x="0px" y="0px"
	 viewBox="0 0 512 512" style="enable-background:new 0 0 512 512;" xml:space="preserve">
<g>
	<path d="M254.2575378,388.4682922c-0.3618774-24.2935486-4.2634735-45.2560425-9.265976-65.3960266
		c-4.5437927-0.5985718-8.9589081-1.5462646-13.2249146-2.8102722
		C236.7156372,342.5136719,242.1284332,364.5757751,254.2575378,388.4682922z"/>
	<path d="M266.9625854,323.284729c-4.975769,20.0750122-8.8518677,40.975708-9.2137451,65.1835632
		c11.9443359-23.527771,17.3762512-45.2802429,22.2666321-67.186615
		C275.84375,322.2127991,271.4732361,322.8524475,266.9625854,323.284729z"/>
	<path d="M285.881897,248.7335663c-3.4008484,17.5511322-7.854187,33.8016205-12.315155,49.8364716h60.3945007
		c-7.061615,9.1038513-14.5564575,17.9107971-22.2105713,26.5903015
		c-18.3663025,19.3840942-36.5516663,37.802002-51.6904297,65.1988831
		c41.3388367-25.3670959,56.8904419-58.5093384,101.0783997-85.8195496
		c45.6048584-28.1865845,123.9043884-42.6127319,123.9043884-42.6127319s-51.64328,60.5967712-98.8561707,85.9985657
		c-46.7644043,25.1609802-81.5614929,31.8820496-127.7257385,46.2292175
		c6.8934021-1.7892761,31.1414185-6.427063,51.9338074,9.9996033c27.9674072,22.0936584,40.940033,34.3951111,40.940033,34.3951111
		s-21.2434692-5.8613281-54.1662292-18.7109985c-19.7144165-7.6942444-32.048645-16.984436-37.6398315-21.828949
		c-2.0285339-1.7577515-5.0216217-1.7577515-7.0501556,0c-5.5911865,4.8445129-17.9254303,14.1347046-37.6398315,21.828949
		c-32.9240417,12.8496704-54.2362976,18.7109985-54.2362976,18.7109985s13.0414276-12.3014526,41.0088348-34.3951111
		c20.7923737-16.4266663,45.0416565-11.7888794,51.9338074-9.9996033
		c-35.9706421-12.9312134-80.9600677-21.0682373-127.7257309-46.2292175
		c-47.2116318-25.4017944-98.8549194-85.9985657-98.8549194-85.9985657s78.2995453,14.4261475,123.9044037,42.6127319
		c44.1879578,27.3102112,59.7382812,60.4524536,101.0783997,85.8195496
		c-28.4898071-51.5553894-67.7822876-71.2067261-98.7580719-125.4732666
		c-31.5657425-55.2989807-45.4430466-148.835083-45.4430466-148.835083s69.785347,63.8102951,97.9782791,120.9017563
		c9.101593,18.4309692,14.5691833,35.5014038,18.7969818,51.9949646l8.8824463-8.8789368
		c-6.306015-23.6144104-11.8296661-48.4724426-12.733078-78.558197
		c-2.2667999-75.5861359,35.3322601-181.4074249,35.3322601-181.4074249s37.6003418,105.8212891,35.3322754,181.4074249
		c-0.2331848,7.7662354-0.83078,15.1183624-1.6118469,22.2583466l4.34375-4.3418427L437.366333,76.1267166
		C391.0937805,29.1036663,326.9060059,0,256.0031738,0C114.9404144,0,0,115.6835938,0,257.4901733
		C0,397.8037109,114.9404144,512,256.0031738,512c140.2676697,0,252.2749023-105.5502014,255.8286438-263.2294922L512,248.7335663
		H285.881897z"/>
</g>
</svg>
